<?xml version="1.0" standalone="no"?>
<!DOCTYPE svg PUBLIC "-//W3C//DTD SVG 1.1//EN" "http://www.w3.org/Graphics/SVG/1.1/DTD/svg11.dtd">
<svg xmlns="http://www.w3.org/2000/svg" width="666" height="298" viewBox="0 0 666 298">
<g>
<path d="M 102.17 167.94 C101.17,166.38 99.49,163.29 97.75,159.75 C90.62,145.27 88.70,134.91 90.15,118.75 C91.17,107.39 93.82,99.26 99.94,88.65 C109.77,71.63 127.52,58.81 147.50,54.30 C158.34,51.85 176.54,52.64 185.91,55.97 C194.51,59.02 201.90,62.81 204.66,65.57 C205.91,66.82 207.83,68.13 208.92,68.47 C212.42,69.59 224.54,83.60 228.48,91.10 C234.32,102.22 236.08,108.93 236.70,122.50 C237.11,131.46 236.84,136.49 235.63,142.36 C234.73,146.68 234.00,151.57 234.00,153.24 C234.00,153.56 233.96,153.93 233.88,154.34 C233.09,153.09 226.79,153.00 184.89,153.00 L 135.78 153.00 L 136.40 150.54 C137.64,145.59 139.02,142.89 140.00,143.50 C140.67,143.92 140.67,144.74 140.00,145.99 C139.31,147.29 138.66,148.25 138.87,148.97 C139.50,151.12 147.94,151.00 186.50,151.00 C217.50,151.00 234.00,150.65 234.00,150.00 C234.00,149.35 217.96,149.00 187.89,149.00 L 141.78 149.00 L 142.48 145.26 C142.87,143.20 143.39,141.17 143.65,140.76 C143.91,140.34 150.10,140.00 157.41,140.00 L 170.70 140.00 L 181.68 107.00 L 168.84 107.00 C155.42,107.00 154.97,106.84 156.61,102.58 C157.13,101.21 159.88,101.00 176.99,101.00 L 196.76 101.00 L 197.83 98.25 C200.23,92.07 207.00,71.11 207.00,69.85 C207.00,67.98 136.00,68.41 134.80,70.29 C134.13,71.35 104.67,159.56 102.17,167.94 ZM 371.12 178.00 C365.97,176.78 359.90,172.02 355.78,165.97 C352.12,160.59 352.06,160.33 352.03,150.75 L 352.00 141.00 L 361.88 141.00 C368.59,141.00 372.07,141.40 372.74,142.25 C373.29,142.94 373.98,146.35 374.28,149.82 C374.97,157.83 376.75,160.00 382.63,160.00 C388.93,160.00 390.97,156.50 389.90,147.50 C389.53,144.40 383.42,137.72 373.43,129.50 C354.89,114.24 351.12,106.62 353.98,90.18 C356.05,78.29 362.21,71.59 373.83,68.62 C382.38,66.43 385.53,66.57 394.86,69.51 C404.23,72.48 408.05,76.06 410.46,84.17 C412.01,89.39 412.52,99.47 411.39,102.42 C410.90,103.71 408.99,104.00 400.89,104.00 L 391.00 104.00 L 391.00 99.49 C391.00,97.00 390.48,93.97 389.84,92.74 C389.21,91.51 388.38,89.82 387.99,89.00 C386.85,86.53 379.51,86.49 377.05,88.95 C373.41,92.59 374.89,99.98 380.15,104.52 C381.44,105.63 387.67,110.90 394.00,116.23 C410.07,129.76 413.04,134.88 413.34,149.50 C413.48,156.44 413.13,158.26 410.69,163.22 C405.35,174.09 396.25,179.09 382.14,178.90 C377.94,178.84 372.98,178.44 371.12,178.00 ZM 567.00 177.02 C563.97,175.90 560.96,174.27 560.30,173.38 C559.65,172.49 557.83,170.36 556.27,168.63 C554.70,166.91 552.54,162.80 551.46,159.50 C549.68,154.04 549.51,150.69 549.56,122.00 L 549.63 90.50 L 552.40 84.36 C556.01,76.37 559.97,72.67 568.27,69.55 C576.31,66.52 580.32,66.38 589.10,68.82 C596.06,70.75 602.03,74.76 604.19,78.95 C604.91,80.35 605.74,81.72 606.04,82.00 C607.74,83.57 609.47,92.57 609.48,99.97 L 609.50 106.21 C609.48,106.20 609.47,106.19 609.46,106.18 C609.06,105.81 608.53,106.06 608.28,106.75 C607.73,108.29 589.44,108.52 588.50,107.00 C587.57,105.49 586.00,105.80 586.00,107.50 C586.00,108.42 587.05,108.80 591.38,108.93 L 585.88 109.06 L 586.19 99.45 C586.54,88.61 585.65,87.00 579.33,87.00 C573.12,87.00 572.97,87.87 572.97,123.23 C572.97,140.57 573.26,155.50 573.61,156.42 C574.53,158.83 579.12,160.90 581.53,159.99 C585.22,158.60 585.93,156.57 586.34,146.07 C586.63,138.79 587.15,135.52 588.13,134.90 C589.93,133.76 607.09,133.77 608.90,134.92 C610.78,136.11 609.81,154.63 607.52,161.13 C605.45,167.03 600.49,172.83 594.88,175.91 C588.62,179.35 574.82,179.90 567.00,177.02 ZM 486.63 175.75 C485.84,172.80 485.84,75.18 486.63,72.23 L 487.24 69.97 L 512.37 70.23 L 537.50 70.50 L 537.79 79.10 C538.00,85.38 537.71,88.00 536.72,88.82 C535.92,89.48 530.11,90.05 522.44,90.22 L 509.50 90.50 L 509.65 100.32 C509.74,105.72 510.06,110.39 510.37,110.70 C510.68,111.01 515.79,111.33 521.72,111.40 C527.65,111.47 533.06,111.89 533.75,112.33 C534.61,112.87 535.00,116.10 535.00,122.56 L 535.00 132.00 L 522.61 132.00 C513.59,132.00 510.09,132.34 509.77,133.25 C509.30,134.60 509.81,156.14 510.32,156.66 C510.49,156.83 517.02,157.01 524.82,157.06 L 537.49 157.14 C537.20,157.32 537.00,157.64 537.00,158.00 C537.00,158.55 537.45,159.00 538.00,159.00 C538.55,159.00 539.00,158.55 539.00,158.00 C539.00,157.64 538.81,157.33 538.53,157.15 L 539.00 157.15 L 539.00 178.00 L 487.23 178.00 ZM 289.68 177.35 C289.31,176.97 289.00,152.67 289.00,123.33 L 289.00 70.00 L 340.73 70.00 L 340.92 78.58 C341.04,83.96 340.67,87.70 339.93,88.58 C339.02,89.68 335.70,90.00 325.38,90.00 L 312.00 90.00 L 312.00 100.50 C312.00,108.17 312.34,111.03 313.25,111.12 C313.94,111.18 314.95,111.34 315.50,111.46 C316.05,111.59 321.11,111.76 326.75,111.85 L 337.00 112.00 L 337.00 132.00 L 312.00 132.00 L 312.00 157.00 L 322.25 157.07 C327.89,157.11 334.52,157.45 337.00,157.82 L 341.50 158.50 L 341.50 177.50 L 315.93 177.77 C301.87,177.91 290.06,177.73 289.68,177.35 ZM 435.48 176.78 C435.22,176.08 434.89,156.38 434.75,133.00 L 434.50 90.50 L 420.50 89.50 L 420.21 79.75 L 419.93 70.00 L 473.00 70.00 L 473.00 78.80 C473.00,84.31 472.55,88.05 471.80,88.80 C471.12,89.48 467.87,90.00 464.31,90.00 L 458.02 90.00 L 457.76 133.75 L 457.50 177.50 L 446.73 177.78 C438.67,178.00 435.84,177.75 435.48,176.78 ZM 78.50 164.00 C78.57,164.03 78.64,164.06 78.71,164.09 C77.96,163.88 77.29,163.67 76.86,163.50 C75.62,163.02 74.92,163.80 73.89,166.84 C73.94,166.21 73.67,166.09 73.08,166.45 C71.64,167.34 68.81,163.93 69.50,162.12 C69.94,160.96 69.81,160.81 69.04,161.57 C68.61,162.00 68.63,163.18 68.93,164.57 C68.38,163.00 67.86,161.25 67.42,159.50 C67.02,157.85 66.56,156.05 66.41,155.50 C60.36,133.99 61.04,112.26 68.38,93.00 C69.53,89.97 70.51,87.28 70.57,87.00 C72.42,77.64 91.47,53.82 104.50,44.58 C113.20,38.42 130.21,30.00 133.97,30.00 C135.03,30.00 138.51,29.27 141.70,28.37 C144.89,27.47 149.19,26.52 151.25,26.26 C154.89,25.80 155.00,25.67 155.05,21.64 L 155.06 20.53 L 155.08 21.55 C155.12,23.72 155.38,24.94 155.66,24.25 C156.36,22.53 159.49,22.68 161.00,24.50 C161.90,25.59 162.61,26.13 162.88,25.99 C165.79,29.30 167.99,32.30 167.99,33.03 C168.00,33.87 165.07,37.46 161.50,41.00 L 161.14 41.36 C162.81,39.65 164.00,38.30 164.00,38.10 C164.00,37.83 162.52,39.05 160.70,40.81 C158.13,43.29 157.14,43.74 156.20,42.80 C155.27,41.87 155.00,42.24 155.00,44.51 L 155.00 43.72 C155.00,40.31 154.77,40.00 152.19,40.00 C147.44,40.00 133.88,43.91 126.31,47.47 C85.07,66.84 65.73,112.32 80.44,155.36 L 81.99 159.89 C81.56,158.99 81.41,159.35 81.20,160.75 C80.97,162.26 80.15,163.02 78.68,163.07 C76.57,163.14 76.57,163.17 78.50,164.00 ZM 149.50 227.52 C148.95,227.34 145.12,226.43 141.00,225.49 C118.96,220.46 98.67,207.54 83.76,189.03 L 80.15 184.56 L 76.54 186.28 C76.18,186.45 75.82,186.62 75.47,186.78 C77.19,185.87 79.00,184.73 79.00,184.42 C79.00,184.12 78.59,184.13 78.09,184.44 C76.31,185.55 74.22,183.88 74.62,181.69 C74.85,180.48 74.38,181.07 73.59,183.00 C73.26,183.81 72.95,184.61 72.69,185.30 C73.20,183.80 74.04,181.80 75.09,179.72 C76.14,177.64 77.01,174.94 77.02,173.72 C77.02,173.46 77.02,173.22 77.03,172.99 C77.20,173.01 77.70,172.59 78.66,171.75 C79.76,170.78 81.04,170.33 81.49,170.75 C81.95,171.16 82.00,170.94 81.60,170.25 C81.45,169.99 81.18,169.75 80.85,169.55 C81.51,169.70 82.28,169.94 83.16,170.27 C85.55,171.15 89.53,172.41 92.00,173.05 C96.43,174.21 96.47,174.25 94.25,175.74 C93.01,176.57 92.00,177.57 92.00,177.97 C92.00,179.87 104.29,192.42 110.88,197.24 C113.97,199.51 116.72,201.62 117.00,201.93 C117.99,203.06 130.61,208.76 135.50,210.28 C145.42,213.38 151.00,214.13 164.64,214.19 C177.13,214.25 179.34,213.99 187.00,211.51 C196.38,208.48 207.08,203.39 214.00,198.67 C219.64,194.82 228.99,186.08 229.04,184.60 C229.06,184.00 230.61,181.71 232.48,179.52 C234.37,177.31 235.29,176.29 235.93,176.70 C235.09,176.81 233.79,177.93 232.10,180.03 C230.34,182.21 229.39,184.00 229.98,184.00 C230.58,184.00 231.32,183.33 231.64,182.51 C231.95,181.68 232.68,181.30 233.26,181.66 C233.87,182.04 234.01,181.83 233.60,181.15 C233.14,180.42 233.64,180.00 234.94,180.00 C235.87,180.00 236.66,179.57 236.91,178.97 C237.07,179.61 237.24,180.37 237.44,181.28 C237.90,183.36 238.81,184.21 241.03,184.66 C242.66,184.98 244.00,185.71 244.00,186.27 C244.00,186.84 242.09,189.62 239.75,192.46 C228.95,205.57 212.15,217.00 195.44,222.62 C184.20,226.39 173.90,228.01 161.66,227.92 C155.52,227.88 150.05,227.70 149.50,227.52 ZM 242.47 177.33 C241.66,176.52 241.00,175.17 241.00,174.33 C241.00,173.49 240.37,171.38 239.60,169.65 C239.21,168.77 238.83,167.86 238.48,166.96 C238.69,167.10 238.89,166.86 239.09,166.30 C239.45,165.31 239.55,164.16 239.32,163.75 C239.08,163.34 239.70,162.98 240.69,162.96 C242.13,162.94 241.99,162.64 240.00,161.50 C240.05,161.53 240.10,161.55 240.14,161.57 C241.82,162.44 243.28,163.00 243.40,162.82 C243.51,162.65 244.31,160.70 245.17,158.50 C256.00,130.84 251.49,98.14 233.56,74.29 C220.15,56.45 196.82,42.44 177.17,40.42 C175.68,40.26 174.43,40.13 173.42,40.00 L 175.45 40.00 L 173.22 38.44 C172.13,37.68 170.96,37.39 170.18,37.51 C170.59,36.97 171.22,36.31 172.03,35.47 L 175.38 32.01 L 172.59 29.10 C173.40,29.76 173.83,29.59 174.46,28.73 C175.03,27.96 176.18,27.06 177.00,26.74 C177.10,26.70 177.17,26.66 177.21,26.63 C185.00,28.15 199.35,32.03 201.50,33.40 C202.60,34.11 204.62,34.96 206.00,35.30 C210.36,36.38 228.03,48.82 234.43,55.31 C241.14,62.13 248.38,71.91 251.97,79.00 C253.23,81.47 254.68,84.34 255.21,85.37 C257.43,89.71 262.07,105.45 262.98,111.72 C265.32,127.92 263.49,146.12 258.00,161.16 C256.35,165.68 255.00,169.65 255.00,169.98 C255.00,170.24 255.94,171.03 257.22,171.86 C256.26,171.39 255.47,171.20 255.25,171.42 C254.93,171.74 255.19,172.00 255.83,172.00 C256.48,172.00 257.00,172.90 257.00,174.00 C257.00,174.86 257.12,175.42 257.39,175.71 C255.90,176.10 254.03,176.55 252.04,176.99 C244.91,178.58 243.76,178.62 242.47,177.33 ZM 150.11 199.52 C139.69,197.15 133.89,194.93 126.77,190.60 C120.81,186.97 113.77,181.42 109.29,177.08 C112.77,177.65 131.79,177.88 165.26,177.73 L 218.24 177.51 C216.89,178.07 214.06,180.17 211.61,182.45 C205.32,188.30 192.41,195.31 182.96,198.00 C173.23,200.76 158.56,201.44 150.11,199.52 ZM 104.93 171.82 C104.28,170.27 103.43,169.00 103.03,169.00 C103.01,169.00 102.99,168.99 102.96,168.97 C103.75,168.04 111.31,146.48 120.03,120.25 C128.94,93.44 136.74,71.17 137.36,70.77 C138.65,69.93 203.38,69.71 204.20,70.54 C204.50,70.83 202.67,77.35 200.14,85.04 L 195.54 99.00 L 155.90 99.00 L 154.45 102.47 C153.37,105.06 152.70,106.61 153.20,107.55 C153.94,108.98 157.32,109.04 165.86,109.22 L 178.71 109.50 L 174.11 123.72 L 169.50 137.94 L 156.30 137.97 C144.81,138.00 142.97,138.23 142.12,139.74 C140.86,142.01 139.62,140.76 140.48,138.08 C141.10,136.11 141.85,136.00 154.33,136.00 L 167.53 136.00 L 175.74 112.00 L 163.04 112.00 C156.05,112.00 150.10,111.77 149.81,111.48 C149.53,111.19 150.31,107.93 151.56,104.23 L 153.82 97.50 L 193.84 96.96 L 201.86 72.97 L 137.94 73.50 L 121.46 122.81 C109.36,159.04 105.77,169.77 106.28,173.88 C105.62,173.06 105.15,172.37 104.93,171.82 ZM 588.50 273.09 C587.40,272.61 585.29,270.92 583.82,269.35 C581.40,266.78 581.15,265.83 581.32,259.67 C581.49,253.32 581.73,252.63 584.77,249.92 C587.58,247.41 588.84,247.00 593.83,247.00 C600.12,247.00 603.23,248.84 605.06,253.66 C607.37,259.75 605.27,269.10 600.98,271.78 C598.32,273.44 591.02,274.21 588.50,273.09 ZM 123.39 273.02 C117.92,270.81 114.68,261.52 116.97,254.59 C118.73,249.25 122.22,247.00 128.73,247.00 C133.62,247.00 134.56,247.36 137.60,250.40 C140.74,253.54 141.00,254.28 141.00,260.02 C141.00,265.91 140.79,266.44 137.12,270.12 C133.90,273.33 132.57,273.99 129.37,273.94 C127.24,273.90 124.55,273.49 123.39,273.02 ZM 242.33 272.91 C234.55,269.97 232.36,255.46 238.79,249.50 C240.98,247.46 242.50,247.00 247.02,247.00 C253.50,247.00 256.58,248.76 258.61,253.60 C263.63,265.61 253.81,277.25 242.33,272.91 ZM 341.00 247.16 L 343.98 246.50 C348.82,245.44 357.66,247.75 359.95,250.67 C364.21,256.08 363.76,265.40 359.00,270.15 C356.37,272.78 355.57,273.00 348.58,273.00 L 341.00 273.00 L 341.00 247.16 ZM 146.00 260.04 L 146.00 247.00 L 149.38 247.00 C152.14,247.00 152.97,247.51 153.93,249.83 C154.57,251.38 155.24,253.74 155.42,255.08 C155.59,256.41 156.02,258.29 156.37,259.25 C156.72,260.21 157.26,261.79 157.57,262.75 C158.07,264.26 158.33,264.16 159.54,262.00 C160.30,260.62 161.45,256.92 162.09,253.77 C163.38,247.41 164.76,245.69 168.19,246.17 C170.45,246.49 170.51,246.77 170.78,259.82 L 171.06 273.15 L 168.78 272.82 C166.57,272.51 166.51,272.21 166.84,263.75 C167.22,253.81 165.85,252.13 164.01,260.25 C161.81,269.89 161.27,272.32 160.00,272.80 C159.55,272.97 159.02,272.90 158.29,272.81 C156.38,272.58 155.60,271.84 155.35,270.00 C155.16,268.62 154.70,266.38 154.31,265.00 C153.92,263.62 153.56,262.05 153.49,261.50 C153.43,260.95 153.04,259.49 152.62,258.25 C151.14,253.85 150.00,256.11 150.00,263.46 C150.00,269.91 149.73,271.08 148.00,272.00 C146.05,273.04 146.00,272.76 146.00,260.04 ZM 305.59 271.66 C301.96,268.76 301.77,263.94 305.15,260.34 C307.07,258.30 307.24,257.61 306.21,255.97 C306.10,255.79 306.00,255.61 305.90,255.43 C305.93,255.46 305.96,255.47 305.99,255.49 C306.54,255.83 306.73,255.46 306.42,254.65 C305.49,252.23 308.05,251.63 309.64,253.89 C311.43,256.46 313.30,256.58 315.13,254.25 C316.37,252.67 316.33,252.63 314.76,253.86 C314.38,254.16 313.99,254.38 313.60,254.53 C314.19,254.10 314.66,253.35 314.82,252.24 C315.08,250.42 314.66,250.00 312.57,250.00 C311.56,250.00 310.88,250.16 310.47,250.53 C310.78,250.19 311.23,250.00 311.80,250.00 C312.79,250.00 314.06,249.54 314.62,248.98 C315.32,248.28 316.25,248.61 317.53,250.03 C319.08,251.75 319.20,252.45 318.21,254.04 C317.54,255.10 317.01,256.32 317.03,256.74 C317.03,256.78 317.04,256.81 317.06,256.83 C315.33,258.51 315.33,259.03 316.48,260.67 C317.50,262.12 318.69,262.55 320.82,262.24 C323.53,261.84 323.72,262.01 323.26,264.44 C322.95,266.06 323.37,267.75 324.37,268.85 C324.47,268.96 324.56,269.07 324.64,269.16 C324.53,269.06 324.42,268.96 324.29,268.86 C323.37,268.11 322.92,268.01 323.30,268.64 C324.13,270.03 321.66,272.28 320.44,271.24 C319.96,270.83 320.17,271.29 320.91,272.25 C321.09,272.49 321.27,272.71 321.44,272.90 C321.35,272.81 321.25,272.73 321.15,272.64 C319.27,270.94 318.95,270.92 316.84,272.40 C313.59,274.67 308.98,274.37 305.59,271.66 ZM 438.12 272.83 C438.46,272.39 438.72,271.17 438.75,269.75 C438.77,268.34 438.74,267.62 438.60,267.50 C439.00,266.58 439.45,265.60 439.93,264.60 C441.54,261.25 443.75,256.25 444.85,253.50 C446.99,248.17 448.84,246.34 451.18,247.24 C453.48,248.12 462.15,270.11 460.84,271.70 C459.28,273.57 458.74,273.35 456.50,270.00 C454.71,267.32 453.95,267.01 449.37,267.00 C444.61,267.00 444.15,267.22 443.00,270.00 C442.11,272.14 441.08,273.00 439.38,273.00 C438.92,273.00 438.49,272.94 438.12,272.83 ZM 265.22 260.25 C265.49,247.90 265.57,247.49 267.74,247.18 C269.57,246.92 270.86,248.24 274.74,254.29 C277.36,258.38 279.95,261.78 280.50,261.85 C281.09,261.93 281.50,258.82 281.50,254.24 C281.50,252.58 281.51,251.28 281.55,250.25 C281.62,250.10 281.71,249.91 281.81,249.68 C282.72,247.51 283.93,247.33 285.19,249.16 C285.24,249.23 285.28,249.29 285.32,249.35 C285.48,251.23 285.50,254.34 285.50,259.49 C285.50,275.54 284.51,276.46 277.58,266.81 C273.08,260.55 271.23,257.75 270.48,258.02 C269.86,258.25 270.00,260.58 270.00,264.80 C270.00,267.65 270.00,269.51 269.88,270.73 C269.80,269.23 269.62,269.04 269.33,270.14 C269.05,271.21 268.21,271.61 266.95,271.28 C265.88,271.00 265.00,271.27 265.00,271.88 C265.00,272.49 266.11,272.99 267.47,273.00 L 264.94 273.00 ZM 611.00 260.00 C611.00,246.95 611.01,246.86 613.25,247.18 C614.81,247.40 617.19,250.08 621.00,255.88 L 626.50 264.26 L 627.00 255.88 C627.45,248.33 627.70,247.50 629.50,247.50 C631.37,247.50 631.52,248.26 631.78,258.86 C632.20,275.57 629.75,277.35 622.30,265.75 C619.74,261.76 617.16,258.18 616.57,257.78 C615.85,257.30 615.34,259.59 615.00,264.77 C614.59,271.08 614.18,272.54 612.75,272.81 C611.16,273.12 611.00,271.98 611.00,260.00 ZM 176.52 268.28 C177.35,267.08 179.74,261.92 181.81,256.80 C185.11,248.68 185.92,247.46 188.21,247.19 C190.22,246.96 190.99,247.42 191.53,249.19 C191.92,250.46 194.01,255.71 196.18,260.86 C198.36,266.00 199.89,270.84 199.60,271.61 C198.69,273.98 196.30,273.15 195.00,270.00 C193.83,267.17 193.44,267.00 188.10,267.00 C183.31,267.00 182.52,267.12 181.64,269.16 C181.51,269.26 181.20,269.63 180.69,270.25 C178.74,272.67 177.00,272.44 176.98,269.75 C176.97,268.32 176.86,267.93 176.43,268.41 C176.46,268.36 176.49,268.32 176.52,268.28 ZM 523.37 266.70 C523.63,266.21 523.90,265.74 524.16,265.31 C525.22,263.55 526.25,261.30 526.44,260.31 C526.64,259.31 527.94,255.91 529.34,252.75 C533.46,243.45 535.90,244.94 542.29,260.67 C544.79,266.81 546.57,272.10 546.25,272.42 C544.83,273.84 542.36,272.75 540.80,269.99 C539.24,267.26 538.64,267.00 533.77,267.00 C528.78,267.00 528.37,267.18 527.32,269.97 C527.28,269.56 526.86,269.43 525.98,269.43 C524.55,269.43 524.37,269.74 525.20,270.74 C526.04,271.75 525.90,271.90 524.57,271.39 C523.31,270.91 523.01,270.03 523.44,268.11 C523.72,266.87 523.64,266.47 523.37,266.70 ZM 71.88 272.50 C68.10,270.44 66.22,265.56 66.49,258.50 C66.82,249.73 66.84,247.54 67.71,247.12 C68.06,246.96 68.55,247.08 69.25,247.18 C71.38,247.48 71.53,248.06 72.00,257.79 C72.53,268.61 73.14,269.95 77.63,269.98 C81.31,270.01 82.20,267.63 82.35,257.27 L 82.50 247.50 L 88.00 246.87 L 88.00 256.71 C88.00,266.73 87.16,269.52 83.16,272.75 C81.12,274.41 75.15,274.27 71.88,272.50 ZM 37.86 269.73 C38.97,267.93 41.28,262.64 43.00,257.98 C48.48,243.04 50.58,243.09 57.37,259.53 C55.76,255.76 54.49,253.17 54.31,253.36 C54.07,253.59 54.56,255.41 55.39,257.39 C56.22,259.38 56.69,261.00 56.43,261.00 C56.17,261.00 56.64,262.05 57.48,263.33 C58.32,264.61 58.71,265.96 58.34,266.33 C57.97,266.70 58.19,267.00 58.83,267.00 C60.21,267.00 60.41,270.63 59.09,271.45 C58.58,271.76 57.97,271.45 57.72,270.76 C57.48,270.07 56.94,269.81 56.54,270.18 C56.34,270.36 56.24,270.63 56.21,270.93 C56.09,270.66 55.97,270.35 55.85,270.00 C54.87,267.18 54.49,267.00 49.52,267.00 C44.60,267.00 44.16,267.20 43.00,270.00 C42.02,272.38 41.14,273.00 38.80,273.00 L 35.84 273.00 L 36.53 271.88 C36.40,272.57 36.77,273.00 37.53,273.00 C39.15,273.00 39.52,271.44 38.10,270.56 C37.86,270.42 37.58,270.44 37.32,270.60 ZM 384.01 271.81 C379.68,268.86 378.03,265.71 378.01,260.32 C377.98,251.19 382.43,247.01 392.18,247.00 C393.97,247.00 395.24,247.05 396.22,247.21 C396.08,247.33 396.00,247.54 396.00,247.85 C396.00,248.41 396.95,249.17 398.11,249.54 C400.03,250.14 400.08,250.35 398.66,251.77 C397.31,253.12 396.87,253.14 395.39,251.91 C393.81,250.61 393.78,250.67 395.08,252.75 C395.21,252.95 395.34,253.14 395.47,253.32 C395.18,253.07 394.89,252.80 394.57,252.48 C392.49,250.40 391.31,249.95 389.20,250.45 C384.98,251.45 383.00,254.54 383.00,260.16 C383.00,264.13 383.50,265.59 385.58,267.67 C387.76,269.85 388.78,270.16 392.22,269.70 C394.46,269.40 396.67,268.56 397.13,267.83 C398.74,265.29 398.02,264.00 395.00,264.00 C392.64,264.00 392.00,263.56 392.00,261.95 C392.00,260.12 392.53,259.92 396.75,260.20 L 401.50 260.50 L 401.80 265.19 C402.07,269.31 401.79,270.09 399.50,271.59 C398.06,272.54 394.77,273.50 392.19,273.74 C388.44,274.09 386.80,273.70 384.01,271.81 ZM 134.08 267.42 C135.97,265.40 136.50,263.75 136.50,259.83 C136.50,255.54 136.08,254.47 133.59,252.32 C131.33,250.38 129.98,249.95 127.59,250.41 C123.06,251.28 121.00,254.33 121.00,260.16 C121.00,264.21 121.47,265.53 123.65,267.55 C127.09,270.74 131.00,270.70 134.08,267.42 ZM 252.93 267.37 C255.66,263.89 255.77,256.17 253.13,252.91 C250.78,250.01 245.02,249.77 242.05,252.45 C238.90,255.30 239.14,264.23 242.45,267.55 C245.79,270.89 250.22,270.81 252.93,267.37 ZM 498.70 272.37 C497.05,270.72 498.38,267.99 504.50,260.48 C508.07,256.09 510.99,252.16 511.00,251.75 C511.00,251.34 508.27,251.00 504.93,251.00 C502.25,251.00 500.76,250.97 499.95,250.72 C500.68,250.91 501.97,250.90 504.18,250.83 C508.49,250.70 508.79,250.59 505.75,250.27 C502.05,249.88 500.61,247.78 503.25,246.61 C503.58,246.46 503.62,246.35 503.42,246.29 C503.89,246.25 504.41,246.22 505.00,246.18 C508.02,246.01 512.38,246.14 514.68,246.48 C520.59,247.36 520.06,249.41 511.22,259.73 C502.94,269.39 503.00,269.96 512.33,269.98 C516.55,270.00 518.05,270.35 517.75,271.25 C517.30,272.62 499.97,273.63 498.70,272.37 ZM 598.93 267.37 C601.61,263.95 601.77,256.17 599.22,253.02 C596.65,249.85 590.40,249.79 587.87,252.91 C585.56,255.77 585.35,263.63 587.51,266.71 C588.83,268.59 590.33,269.17 595.68,269.85 C596.33,269.93 597.79,268.81 598.93,267.37 ZM 355.14 268.09 C357.16,266.45 357.50,265.28 357.50,260.01 C357.50,252.81 355.96,251.00 349.81,251.00 L 346.00 251.00 L 346.00 259.83 C346.00,264.69 346.30,268.97 346.67,269.33 C348.00,270.67 352.83,269.95 355.14,268.09 ZM 553.59 266.24 C553.22,262.47 553.22,257.49 553.59,255.19 C554.25,251.05 554.22,251.00 551.25,251.00 C547.56,251.00 544.86,248.35 547.06,246.90 C548.10,246.22 563.74,246.25 566.75,246.94 C566.82,246.96 566.88,247.21 566.93,247.59 C566.79,246.97 566.38,247.24 565.25,248.24 C564.29,249.10 562.60,250.01 561.50,250.28 C560.36,250.56 561.11,250.82 563.25,250.88 C564.62,250.93 565.50,250.90 566.06,250.71 C565.46,250.93 564.51,251.00 563.03,251.00 L 559.07 251.00 L 558.78 261.75 C558.52,271.83 558.37,272.52 556.38,272.80 C554.46,273.08 554.21,272.49 553.59,266.24 ZM 425.67 272.33 C425.30,271.97 425.00,267.02 425.00,261.33 L 425.00 251.00 L 421.97 251.00 C418.63,251.00 416.79,248.38 419.10,246.92 C419.87,246.44 424.33,246.15 429.00,246.29 C432.00,246.37 433.95,246.45 435.23,246.63 C435.24,246.63 435.24,246.63 435.25,246.63 C436.71,247.06 436.78,247.37 435.66,248.48 C434.93,249.22 433.24,250.02 431.91,250.27 C430.45,250.55 431.20,250.78 433.82,250.86 C436.16,250.94 437.24,250.90 437.66,250.43 C437.25,250.92 436.23,251.00 434.07,251.00 L 430.00 251.00 L 430.00 260.80 C430.00,267.09 429.57,271.03 428.80,271.80 C427.44,273.16 426.63,273.30 425.67,272.33 ZM 100.00 262.00 C100.00,251.03 99.99,251.00 97.58,251.00 C94.17,251.00 92.00,250.01 92.00,248.46 C92.00,246.61 94.23,246.22 104.00,246.37 C106.99,246.42 108.93,246.46 110.21,246.62 C110.18,246.75 110.18,246.90 110.22,247.07 C110.37,247.77 109.38,248.93 108.00,249.65 C105.54,250.95 105.56,250.97 109.32,250.99 C110.29,250.99 111.01,250.97 111.54,250.90 C110.96,250.98 110.16,251.00 109.07,251.00 L 105.00 251.00 L 105.00 260.43 C105.00,267.67 104.63,270.22 103.43,271.43 C102.56,272.29 101.44,273.00 100.93,273.00 C100.41,273.00 100.00,268.10 100.00,262.00 ZM 208.77 273.00 C209.17,272.88 209.27,267.86 209.00,261.75 L 208.50 250.50 L 205.83 250.19 C203.27,249.90 200.88,247.00 203.20,247.00 C203.82,247.00 204.10,246.76 203.81,246.48 C203.74,246.41 203.66,246.35 203.58,246.30 C205.27,246.09 207.69,246.05 211.12,246.10 C217.80,246.20 219.21,246.51 220.06,248.11 C220.61,249.15 220.72,250.07 220.29,250.15 C219.85,250.24 219.05,250.41 218.50,250.54 C217.95,250.66 216.49,250.82 215.25,250.88 C213.06,251.00 213.00,251.29 213.00,262.00 L 213.00 273.00 L 208.77 273.00 ZM 466.63 270.75 C465.70,267.28 465.92,249.67 466.91,248.10 C467.40,247.34 468.52,246.99 469.40,247.32 C470.73,247.83 471.00,249.73 471.00,258.39 L 471.00 268.84 L 474.02 269.50 C475.68,269.87 478.83,269.87 481.02,269.50 C481.78,269.37 482.39,269.27 482.89,269.22 C482.55,269.52 482.48,270.13 482.71,271.00 C482.90,271.72 483.24,272.36 483.59,272.71 C482.39,272.97 480.17,273.00 476.12,273.00 C467.75,273.00 467.20,272.87 466.63,270.75 ZM 489.00 261.93 C489.00,250.19 489.86,247.00 493.04,247.00 C494.89,247.00 495.00,247.74 495.00,260.00 L 495.00 273.00 L 489.00 273.00 ZM 571.00 260.07 L 571.00 247.00 L 576.06 247.00 L 575.78 259.75 C575.51,272.11 575.43,272.51 573.25,272.82 C571.02,273.14 571.00,273.05 571.00,260.07 ZM 408.28 260.25 C408.49,247.87 408.56,247.49 410.75,247.18 C412.98,246.86 413.00,246.95 413.00,259.93 L 413.00 273.00 L 410.53 273.00 C412.45,272.99 412.98,272.49 412.93,270.75 C412.87,268.74 412.78,268.70 412.12,270.37 C411.43,272.13 411.29,272.14 409.69,270.55 C408.71,269.57 408.29,269.20 408.12,269.52 ZM 226.00 259.43 C226.00,247.99 226.16,246.88 227.75,247.19 C229.25,247.48 229.54,248.93 229.79,257.51 C230.12,268.81 229.61,272.00 227.48,272.00 C226.25,272.00 226.00,269.86 226.00,259.43 ZM 370.50 273.00 C372.68,273.00 372.99,272.58 372.88,269.75 C372.82,267.96 372.56,267.29 372.31,268.25 C372.06,269.21 371.21,270.00 370.43,270.00 C369.28,270.00 369.00,267.86 369.00,259.00 C369.00,250.73 369.31,248.06 370.25,248.25 C371.05,248.41 371.70,251.18 372.07,256.00 L 372.63 263.50 L 372.82 255.31 C372.84,254.41 372.85,253.59 372.85,252.85 C372.94,254.95 373.00,257.43 373.00,260.06 L 373.00 273.00 L 370.50 273.00 ZM 314.79 267.87 C314.96,266.97 314.01,264.96 312.67,263.40 C310.57,260.96 310.01,260.75 308.61,261.90 C306.69,263.50 306.50,267.10 308.24,268.84 C309.94,270.54 314.41,269.87 314.79,267.87 ZM 51.89 263.09 C53.52,262.06 52.69,257.55 50.45,255.30 C49.27,254.13 48.90,254.10 48.53,255.18 C48.27,255.90 47.58,257.81 46.99,259.42 C46.17,261.65 46.23,262.53 47.21,263.15 C48.87,264.20 50.16,264.19 51.89,263.09 ZM 536.04 262.98 C537.68,262.10 537.78,261.59 536.79,259.23 C534.42,253.63 533.37,253.45 531.70,258.35 C530.28,262.53 530.29,262.92 531.83,263.33 C532.75,263.57 533.64,263.82 533.82,263.88 C533.99,263.95 534.99,263.54 536.04,262.98 ZM 191.00 260.55 C191.00,259.31 190.15,257.32 189.11,256.12 L 187.22 253.94 L 186.21 256.72 C185.66,258.25 184.90,260.25 184.53,261.17 C184.02,262.40 184.45,262.94 186.17,263.21 C189.66,263.78 191.00,263.03 191.00,260.55 ZM 452.60 259.76 C452.25,257.98 451.31,255.88 450.52,255.09 C449.27,253.84 448.96,253.97 448.17,256.08 C446.64,260.18 446.01,261.85 446.57,262.53 C446.96,263.00 447.93,263.00 449.56,263.00 C453.19,263.00 453.24,262.94 452.60,259.76 ZM 489.00 271.59 C489.00,272.49 490.09,273.00 492.00,273.00 C494.45,273.00 495.00,272.59 494.98,270.75 C494.97,269.06 494.75,268.85 494.09,269.89 C493.57,270.71 492.33,271.06 491.10,270.74 C489.70,270.37 489.00,270.66 489.00,271.59 ZM 532.00 131.20 C532.00,131.64 532.67,132.00 533.50,132.00 C534.66,132.00 534.96,130.82 534.84,126.75 C534.72,122.74 534.58,122.33 534.27,125.00 C534.04,126.93 533.44,128.93 532.93,129.45 C532.42,129.97 532.00,130.76 532.00,131.20 ZM 310.78 248.16 C310.57,248.80 309.32,250.04 308.01,250.91 L 305.64 252.49 L 307.43 249.74 C309.22,247.02 311.52,245.93 310.78,248.16 ZM 208.00 262.00 C208.00,267.98 208.33,272.88 208.73,273.00 L 208.00 273.00 L 208.00 262.00 ZM 232.18 159.11 C230.59,162.55 228.17,166.63 225.72,170.07 C228.00,166.61 230.53,162.31 232.18,159.11 ZM 177.53 273.00 C178.78,272.80 180.16,272.11 180.84,271.07 C180.09,272.51 179.20,273.00 177.59,273.00 C177.57,273.00 177.55,273.00 177.53,273.00 ZM 170.95 27.38 L 169.63 26.00 L 172.82 26.00 C173.10,26.00 173.45,26.03 173.87,26.07 C170.24,26.01 169.79,26.03 170.95,27.38 ZM 410.50 273.00 L 408.06 273.00 L 408.08 271.74 C408.31,272.66 409.01,273.00 410.50,273.00 ZM 609.50 107.90 L 609.50 108.50 L 607.03 108.56 C608.19,108.39 609.01,108.17 609.50,107.90 ZM 319.31 250.40 C319.40,250.66 319.48,250.93 319.54,251.21 C319.90,252.70 319.81,253.69 319.02,254.79 C319.66,253.50 319.73,251.88 319.31,250.40 ZM 398.04 247.83 C398.72,248.22 399.27,248.80 399.93,249.63 C402.27,252.61 402.51,253.59 400.55,254.29 C400.69,254.21 400.84,254.12 400.98,254.03 C402.26,253.23 402.18,252.71 400.42,250.36 C399.60,249.26 398.76,248.39 398.04,247.83 ZM 237.07 162.92 C236.54,161.19 236.32,160.00 236.60,160.00 C236.69,160.00 236.93,160.08 237.27,160.22 C236.53,160.14 236.57,160.94 237.07,162.92 ZM 83.40 164.04 L 83.80 165.21 L 82.44 164.94 C83.19,164.94 83.49,164.76 83.40,164.04 ZM 77.33 171.67 C77.22,171.96 77.14,172.21 77.07,172.40 C77.18,171.26 77.42,170.47 77.88,169.98 C77.76,170.42 77.56,171.05 77.33,171.67 ZM 305.01 252.65 C304.86,251.22 305.21,249.90 305.96,248.81 C305.36,249.91 305.03,251.36 305.01,252.65 ZM 259.78 173.55 C260.46,174.09 260.81,174.53 260.64,174.69 C260.59,174.74 260.40,174.83 260.08,174.93 C260.50,174.55 260.43,174.14 259.78,173.55 ZM 201.24 246.90 C200.55,247.47 200.00,248.29 200.00,249.11 C200.00,248.07 200.31,247.37 201.24,246.90 ZM 308.95 246.55 C309.88,246.20 310.95,246.00 312.14,246.00 C312.96,246.00 313.71,246.06 314.39,246.19 C312.63,245.91 310.58,246.04 308.95,246.55 ZM 526.27 271.95 C525.62,272.72 524.79,273.00 523.52,273.00 C523.49,273.00 523.46,273.00 523.43,273.00 C524.45,272.99 525.55,272.57 526.27,271.95 ZM 372.42 247.66 C372.20,246.91 371.86,246.50 371.40,246.35 C371.68,246.38 371.92,246.45 372.09,246.56 C372.21,246.63 372.32,247.02 372.42,247.66 ZM 484.27 269.24 C484.89,269.42 485.00,269.92 485.00,270.91 C485.00,270.93 485.00,270.95 485.00,270.97 C484.99,270.23 484.70,269.58 484.27,269.24 ZM 155.09 17.68 L 155.09 17.50 L 156.78 19.33 L 155.09 17.68 ZM 282.00 247.21 C282.23,246.74 282.56,246.57 283.04,246.52 C282.66,246.64 282.29,246.87 282.00,247.21 ZM 62.85 273.00 L 60.62 267.48 L 62.87 273.00 L 62.85 273.00 ZM 112.32 247.36 C112.63,247.69 112.73,248.13 112.82,248.75 C112.90,249.35 112.93,249.79 112.83,250.12 C112.92,249.81 112.90,249.39 112.82,248.83 C112.74,248.31 112.56,247.79 112.32,247.36 ZM 325.36 270.23 C325.55,270.72 325.47,271.16 325.11,271.76 C325.39,271.16 325.48,270.68 325.36,270.23 ZM 57.73 272.68 C58.38,272.88 59.18,273.00 59.98,273.00 L 59.88 273.00 C58.96,273.00 58.27,272.92 57.73,272.68 ZM 437.00 271.85 C437.00,271.73 437.05,271.50 437.15,271.18 C437.11,271.40 437.08,271.60 437.07,271.75 C437.06,271.90 437.07,272.04 437.10,272.18 C437.03,272.07 437.00,271.96 437.00,271.85 ZM 323.53 273.79 C323.23,274.02 322.96,274.02 322.58,273.80 C322.91,273.94 323.23,273.94 323.53,273.79 ZM 157.66 44.80 L 155.00 47.44 L 155.00 47.42 L 157.66 44.80 ZM 437.27 247.34 C437.59,247.65 437.71,248.08 437.80,248.66 C437.72,248.15 437.53,247.70 437.27,247.34 ZM 499.18 248.75 C499.28,248.06 499.43,247.58 499.79,247.22 C499.47,247.60 499.27,248.11 499.18,248.75 ZM 269.11 272.77 C268.74,272.99 268.23,273.00 267.51,273.00 C268.22,273.00 268.74,272.93 269.11,272.77 ZM 310.30 253.43 C310.11,253.04 310.00,252.57 310.00,252.03 C310.00,252.00 310.00,251.97 310.00,251.94 C310.01,252.52 310.12,253.02 310.30,253.43 ZM 72.19 187.79 C72.26,187.90 72.36,187.97 72.47,187.99 C72.44,188.00 72.42,188.00 72.40,188.00 C72.29,188.00 72.23,187.93 72.19,187.79 ZM 175.00 271.72 C175.00,271.55 175.04,271.33 175.12,271.07 C175.05,271.32 175.02,271.56 175.02,271.75 C175.01,271.79 175.02,271.84 175.02,271.88 C175.01,271.83 175.00,271.78 175.00,271.72 ZM 521.55 270.75 C521.58,270.63 521.62,270.51 521.67,270.37 C521.63,270.50 521.59,270.62 521.55,270.75 C521.33,271.50 521.23,272.00 521.32,272.34 C521.22,272.00 521.32,271.50 521.55,270.75 ZM 567.00 248.91 C567.00,248.94 567.00,248.97 567.00,249.00 C567.00,249.44 566.95,249.78 566.83,250.05 C566.95,249.77 567.00,249.40 567.00,248.91 Z" fill="rgba(42,43,111,1)"/>
<path d="M 317.03 256.74 C317.01,256.32 317.54,255.10 318.21,254.04 C319.20,252.45 319.08,251.75 317.53,250.03 C316.25,248.61 315.32,248.28 314.62,248.98 C314.06,249.54 312.79,250.00 311.80,250.00 C310.66,250.00 310.00,250.74 310.00,252.03 C310.00,254.64 312.53,255.61 314.76,253.86 C316.33,252.63 316.37,252.67 315.13,254.25 C313.30,256.58 311.43,256.46 309.64,253.89 C308.05,251.63 305.49,252.23 306.42,254.65 C306.73,255.46 306.54,255.83 305.99,255.49 C304.34,254.47 304.88,249.42 306.83,247.65 C308.99,245.70 314.93,245.47 317.25,247.25 C319.69,249.11 320.34,253.17 318.58,255.50 C317.74,256.60 317.05,257.16 317.03,256.74 ZM 368.00 260.11 C368.00,249.24 368.25,247.12 369.59,246.60 C372.45,245.51 373.00,247.00 372.82,255.31 L 372.63 263.50 L 372.07 256.00 C371.70,251.18 371.05,248.41 370.25,248.25 C369.31,248.06 369.00,250.73 369.00,259.00 C369.00,267.86 369.28,270.00 370.43,270.00 C371.21,270.00 372.06,269.21 372.31,268.25 C372.56,267.29 372.82,267.96 372.88,269.75 C372.99,272.58 372.68,273.00 370.50,273.00 L 368.00 273.00 ZM 208.00 262.00 L 208.00 251.00 L 204.00 251.00 C200.74,251.00 200.00,250.65 200.00,249.11 C200.00,247.29 202.73,245.40 203.81,246.48 C204.10,246.76 203.82,247.00 203.20,247.00 C200.88,247.00 203.27,249.90 205.83,250.19 L 208.50 250.50 L 209.00 261.75 C209.27,267.94 209.16,273.00 208.75,273.00 C208.34,273.00 208.00,268.05 208.00,262.00 ZM 56.46 271.93 C56.10,271.35 56.13,270.56 56.54,270.18 C56.94,269.81 57.48,270.07 57.72,270.76 C57.97,271.45 58.58,271.76 59.09,271.45 C60.41,270.63 60.21,267.00 58.83,267.00 C58.19,267.00 57.97,266.70 58.34,266.33 C58.71,265.96 58.32,264.61 57.48,263.33 C56.64,262.05 56.17,261.00 56.43,261.00 C56.69,261.00 56.22,259.38 55.39,257.39 C54.56,255.41 54.07,253.59 54.31,253.36 C54.54,253.12 56.56,257.45 58.79,262.97 L 62.85 273.00 L 59.98 273.00 C58.41,273.00 56.82,272.52 56.46,271.93 ZM 586.00 107.50 C586.00,105.80 587.57,105.49 588.50,107.00 C589.44,108.52 607.73,108.29 608.28,106.75 C608.53,106.06 609.06,105.81 609.46,106.18 C611.61,108.17 608.06,109.00 597.44,109.00 C587.94,109.00 586.00,108.75 586.00,107.50 ZM 395.08 252.75 C393.78,250.67 393.81,250.61 395.39,251.91 C396.87,253.14 397.31,253.12 398.66,251.77 C400.08,250.35 400.03,250.14 398.11,249.54 C396.95,249.17 396.00,248.41 396.00,247.85 C396.00,246.17 398.24,247.45 400.42,250.36 C402.18,252.71 402.26,253.23 400.98,254.03 C398.55,255.57 396.57,255.14 395.08,252.75 ZM 161.00 24.50 C159.49,22.68 156.36,22.53 155.66,24.25 C155.38,24.94 155.12,23.72 155.08,21.55 L 155.00 17.59 L 159.00 21.50 C161.20,23.65 163.00,25.54 163.00,25.70 C163.00,26.40 162.16,25.90 161.00,24.50 ZM 71.63 170.30 C69.67,168.35 67.97,162.63 69.04,161.57 C69.81,160.81 69.94,160.96 69.50,162.12 C68.81,163.93 71.64,167.34 73.08,166.45 C74.14,165.80 74.16,166.73 73.15,169.30 C72.76,170.29 72.07,170.74 71.63,170.30 ZM 72.08 187.25 C72.12,186.84 72.80,184.93 73.59,183.00 C74.38,181.07 74.85,180.48 74.62,181.69 C74.22,183.88 76.31,185.55 78.09,184.44 C78.59,184.13 79.00,184.12 79.00,184.42 C79.00,184.96 73.54,188.00 72.55,188.00 C72.25,188.00 72.03,187.66 72.08,187.25 ZM 108.00 249.65 C109.38,248.93 110.37,247.77 110.22,247.07 C110.06,246.38 110.51,246.00 111.22,246.23 C111.92,246.47 112.64,247.63 112.82,248.83 C113.10,250.74 112.67,251.00 109.32,250.99 C105.56,250.97 105.54,250.95 108.00,249.65 ZM 499.18 248.75 C499.40,247.18 500.26,246.43 502.00,246.28 C503.38,246.15 503.94,246.30 503.25,246.61 C500.61,247.78 502.05,249.88 505.75,250.27 C508.79,250.59 508.49,250.70 504.18,250.83 C499.20,250.99 498.88,250.86 499.18,248.75 ZM 521.55 270.75 C522.67,267.11 524.12,265.08 523.44,268.11 C523.01,270.03 523.31,270.91 524.57,271.39 C525.90,271.90 526.04,271.75 525.20,270.74 C524.37,269.74 524.55,269.43 525.98,269.43 C527.46,269.43 527.64,269.80 526.89,271.21 C526.35,272.21 524.80,273.00 523.40,273.00 C521.23,273.00 520.97,272.67 521.55,270.75 ZM 232.10 180.03 C235.20,176.17 237.00,175.63 237.00,178.56 C237.00,179.35 236.07,180.00 234.94,180.00 C233.64,180.00 233.14,180.42 233.60,181.15 C234.01,181.83 233.87,182.04 233.26,181.66 C232.68,181.30 231.95,181.68 231.64,182.51 C231.32,183.33 230.58,184.00 229.98,184.00 C229.39,184.00 230.34,182.21 232.10,180.03 ZM 237.36 164.05 C236.17,159.59 236.35,159.42 240.00,161.50 C241.99,162.64 242.13,162.94 240.69,162.96 C239.70,162.98 239.08,163.34 239.32,163.75 C239.55,164.16 239.45,165.31 239.09,166.30 C238.60,167.66 238.17,167.11 237.36,164.05 ZM 155.00 44.51 C155.00,42.24 155.27,41.87 156.20,42.80 C157.14,43.74 158.13,43.29 160.70,40.81 C162.52,39.05 164.00,37.83 164.00,38.10 C164.00,38.36 161.98,40.57 159.50,43.00 L 155.00 47.42 ZM 78.50 164.00 C76.57,163.17 76.57,163.14 78.68,163.07 C80.15,163.02 80.97,162.26 81.20,160.75 C81.50,158.76 81.67,158.87 82.72,161.75 C83.75,164.61 83.69,164.99 82.20,164.93 C81.26,164.89 79.60,164.47 78.50,164.00 ZM 320.91 272.25 C320.17,271.29 319.96,270.83 320.44,271.24 C321.66,272.28 324.13,270.03 323.30,268.64 C322.92,268.01 323.37,268.11 324.29,268.86 C325.56,269.88 325.71,270.67 324.94,272.11 C323.68,274.46 322.63,274.50 320.91,272.25 ZM 171.56 28.07 C169.70,26.01 169.70,26.00 174.10,26.08 C176.52,26.12 177.82,26.42 177.00,26.74 C176.18,27.06 175.03,27.96 174.46,28.73 C173.60,29.90 173.12,29.79 171.56,28.07 ZM 489.00 271.59 C489.00,270.66 489.70,270.37 491.10,270.74 C492.33,271.06 493.57,270.71 494.09,269.89 C494.75,268.85 494.97,269.06 494.98,270.75 C495.00,272.59 494.45,273.00 492.00,273.00 C490.09,273.00 489.00,272.49 489.00,271.59 ZM 431.91 250.27 C433.24,250.02 434.93,249.22 435.66,248.48 C436.78,247.37 436.71,247.06 435.25,246.63 C433.89,246.23 433.95,246.16 435.50,246.32 C436.73,246.44 437.62,247.38 437.82,248.76 C438.11,250.80 437.75,250.99 433.82,250.86 C431.20,250.78 430.45,250.55 431.91,250.27 ZM 175.02 271.75 C175.02,271.06 175.47,269.83 176.00,269.00 C176.78,267.79 176.97,267.93 176.98,269.75 C177.00,272.44 178.74,272.67 180.69,270.25 C181.97,268.67 182.00,268.72 181.02,270.75 C179.85,273.17 174.99,273.98 175.02,271.75 ZM 532.00 131.20 C532.00,130.76 532.42,129.97 532.93,129.45 C533.44,128.93 534.04,126.93 534.27,125.00 C534.58,122.33 534.72,122.74 534.84,126.75 C534.96,130.82 534.66,132.00 533.50,132.00 C532.67,132.00 532.00,131.64 532.00,131.20 ZM 408.00 270.93 C408.00,268.98 408.10,268.96 409.69,270.55 C411.29,272.14 411.43,272.13 412.12,270.37 C412.78,268.70 412.87,268.74 412.93,270.75 C412.98,272.50 412.45,273.00 410.50,273.00 C408.64,273.00 408.00,272.47 408.00,270.93 ZM 561.50 250.28 C562.60,250.01 564.29,249.10 565.25,248.24 C566.86,246.82 567.00,246.87 567.00,248.85 C567.00,250.69 566.46,250.98 563.25,250.88 C561.11,250.82 560.36,250.56 561.50,250.28 ZM 257.00 174.00 C257.00,172.90 256.48,172.00 255.83,172.00 C255.19,172.00 254.93,171.74 255.25,171.42 C255.57,171.10 257.02,171.62 258.47,172.57 C260.46,173.88 260.79,174.51 259.81,175.14 C257.74,176.45 257.00,176.15 257.00,174.00 ZM 169.54 39.07 C168.46,37.32 171.00,36.88 173.22,38.44 L 175.45 40.00 L 172.78 40.00 C171.32,40.00 169.86,39.58 169.54,39.07 ZM 77.33 171.67 C77.70,170.66 78.00,169.65 78.00,169.42 C78.00,168.43 80.95,169.11 81.60,170.25 C82.00,170.94 81.95,171.16 81.49,170.75 C81.04,170.33 79.76,170.78 78.66,171.75 C76.75,173.42 76.69,173.42 77.33,171.67 ZM 265.00 271.88 C265.00,271.27 265.88,271.00 266.95,271.28 C268.21,271.61 269.05,271.21 269.33,270.14 C269.63,269.04 269.81,269.23 269.88,270.75 C269.97,272.51 269.46,273.00 267.50,273.00 C266.12,273.00 265.00,272.50 265.00,271.88 ZM 310.78 248.16 C311.52,245.93 309.22,247.02 307.43,249.74 L 305.64 252.49 L 308.01 250.91 C309.32,250.04 310.57,248.80 310.78,248.16 ZM 281.27 249.00 C281.56,245.87 285.31,245.45 285.79,248.50 C286.02,249.97 285.86,250.15 285.19,249.16 C283.93,247.33 282.72,247.51 281.81,249.68 C281.19,251.13 281.08,250.99 281.27,249.00 ZM 482.71 271.00 C482.37,269.70 482.68,269.00 483.59,269.00 C484.37,269.00 485.00,269.90 485.00,271.00 C485.00,272.10 484.60,273.00 484.12,273.00 C483.63,273.00 483.00,272.10 482.71,271.00 ZM 437.07 271.75 C437.11,271.06 437.51,269.60 437.97,268.50 C438.64,266.88 438.79,267.11 438.75,269.75 C438.72,271.54 438.31,273.00 437.85,273.00 C437.38,273.00 437.03,272.44 437.07,271.75 ZM 36.64 271.51 C36.95,270.68 37.61,270.26 38.10,270.56 C39.52,271.44 39.15,273.00 37.53,273.00 C36.64,273.00 36.29,272.41 36.64,271.51 ZM 537.00 158.00 C537.00,157.45 537.45,157.00 538.00,157.00 C538.55,157.00 539.00,157.45 539.00,158.00 C539.00,158.55 538.55,159.00 538.00,159.00 C537.45,159.00 537.00,158.55 537.00,158.00 Z" fill="rgba(22,38,96,1)"/>
<path d="M 108.76 176.94 C104.27,174.29 104.27,174.27 121.46,122.81 L 137.94 73.50 L 169.90 73.24 L 201.86 72.97 L 197.85 84.97 L 193.84 96.96 L 173.83 97.23 L 153.82 97.50 L 151.56 104.23 C150.31,107.93 149.53,111.19 149.81,111.48 C150.10,111.77 156.05,112.00 163.04,112.00 L 175.74 112.00 L 171.63 124.00 L 167.53 136.00 L 154.33 136.00 C141.85,136.00 141.10,136.11 140.48,138.08 C139.62,140.76 140.86,142.01 142.12,139.74 C142.97,138.23 144.81,138.00 156.30,137.97 L 169.50 137.94 L 174.11 123.72 L 178.71 109.50 L 165.86 109.22 C151.65,108.91 151.74,108.96 154.45,102.47 L 155.90 99.00 L 175.72 99.00 L 195.54 99.00 L 200.14 85.04 C202.67,77.35 204.50,70.83 204.20,70.54 C203.38,69.71 138.65,69.93 137.36,70.77 C136.74,71.17 128.94,93.44 120.03,120.25 C111.12,147.06 103.41,169.00 102.91,169.00 C102.41,169.00 102.00,168.80 102.00,168.56 C102.00,167.56 134.10,71.40 134.80,70.29 C136.00,68.41 207.00,67.98 207.00,69.85 C207.00,71.11 200.23,92.07 197.83,98.25 L 196.76 101.00 L 176.99 101.00 C159.88,101.00 157.13,101.21 156.61,102.58 C154.97,106.84 155.42,107.00 168.84,107.00 L 181.68 107.00 L 176.19 123.50 L 170.70 140.00 L 157.41 140.00 C150.10,140.00 143.91,140.34 143.65,140.76 C143.39,141.17 142.87,143.20 142.48,145.26 L 141.78 149.00 L 187.89 149.00 C217.96,149.00 234.00,149.35 234.00,150.00 C234.00,150.65 217.50,151.00 186.50,151.00 C135.20,151.00 137.21,151.22 140.00,145.99 C140.67,144.74 140.67,143.92 140.00,143.50 C139.02,142.89 137.64,145.59 136.40,150.54 L 135.78 153.00 L 184.89 153.00 C231.00,153.00 234.00,153.11 233.98,154.75 C233.96,156.76 226.27,170.03 222.53,174.50 L 220.03 177.50 L 165.26 177.73 C129.20,177.89 109.91,177.62 108.76,176.94 Z" fill="rgba(238,240,245,1)"/>
</g>
</svg>